<svg xmlns="http://www.w3.org/2000/svg" viewBox="0 0 880 520" font-family="-apple-system, 'Helvetica Neue', Arial, sans-serif">
<rect width="880" height="520" fill="#FAFAFA"/>
<text x="440.0" y="36" text-anchor="middle" font-size="20" font-weight="700" fill="#1A1A1A">Per-tree encoding noise washes out across many trees</text>
<text x="440.0" y="60" text-anchor="middle" font-size="14" fill="#6B7280">Encoding for row 4 (site C) across 50 random permutations, with running average</text>
<rect x="80" y="110" width="740" height="320" fill="#FFFFFF" stroke="#E5E7EB" stroke-width="1"/>
<line x1="80" y1="380.8" x2="820" y2="380.8" stroke="#F3F4F6" stroke-width="1"/>
<text x="70" y="384.8" text-anchor="end" font-size="11" fill="#6B7280">1.40</text>
<line x1="80" y1="331.5" x2="820" y2="331.5" stroke="#F3F4F6" stroke-width="1"/>
<text x="70" y="335.5" text-anchor="end" font-size="11" fill="#6B7280">1.50</text>
<line x1="80" y1="282.3" x2="820" y2="282.3" stroke="#F3F4F6" stroke-width="1"/>
<text x="70" y="286.3" text-anchor="end" font-size="11" fill="#6B7280">1.60</text>
<line x1="80" y1="233.1" x2="820" y2="233.1" stroke="#F3F4F6" stroke-width="1"/>
<text x="70" y="237.1" text-anchor="end" font-size="11" fill="#6B7280">1.70</text>
<line x1="80" y1="183.8" x2="820" y2="183.8" stroke="#F3F4F6" stroke-width="1"/>
<text x="70" y="187.8" text-anchor="end" font-size="11" fill="#6B7280">1.80</text>
<line x1="80" y1="134.6" x2="820" y2="134.6" stroke="#F3F4F6" stroke-width="1"/>
<text x="70" y="138.6" text-anchor="end" font-size="11" fill="#6B7280">1.90</text>
<line x1="80.0" y1="430" x2="80.0" y2="435" stroke="#9CA3AF" stroke-width="1"/>
<text x="80.0" y="452" text-anchor="middle" font-size="11" fill="#6B7280">1</text>
<line x1="140.4" y1="430" x2="140.4" y2="435" stroke="#9CA3AF" stroke-width="1"/>
<text x="140.4" y="452" text-anchor="middle" font-size="11" fill="#6B7280">5</text>
<line x1="215.9" y1="430" x2="215.9" y2="435" stroke="#9CA3AF" stroke-width="1"/>
<text x="215.9" y="452" text-anchor="middle" font-size="11" fill="#6B7280">10</text>
<line x1="291.4" y1="430" x2="291.4" y2="435" stroke="#9CA3AF" stroke-width="1"/>
<text x="291.4" y="452" text-anchor="middle" font-size="11" fill="#6B7280">15</text>
<line x1="366.9" y1="430" x2="366.9" y2="435" stroke="#9CA3AF" stroke-width="1"/>
<text x="366.9" y="452" text-anchor="middle" font-size="11" fill="#6B7280">20</text>
<line x1="442.4" y1="430" x2="442.4" y2="435" stroke="#9CA3AF" stroke-width="1"/>
<text x="442.4" y="452" text-anchor="middle" font-size="11" fill="#6B7280">25</text>
<line x1="518.0" y1="430" x2="518.0" y2="435" stroke="#9CA3AF" stroke-width="1"/>
<text x="518.0" y="452" text-anchor="middle" font-size="11" fill="#6B7280">30</text>
<line x1="593.5" y1="430" x2="593.5" y2="435" stroke="#9CA3AF" stroke-width="1"/>
<text x="593.5" y="452" text-anchor="middle" font-size="11" fill="#6B7280">35</text>
<line x1="669.0" y1="430" x2="669.0" y2="435" stroke="#9CA3AF" stroke-width="1"/>
<text x="669.0" y="452" text-anchor="middle" font-size="11" fill="#6B7280">40</text>
<line x1="744.5" y1="430" x2="744.5" y2="435" stroke="#9CA3AF" stroke-width="1"/>
<text x="744.5" y="452" text-anchor="middle" font-size="11" fill="#6B7280">45</text>
<line x1="820.0" y1="430" x2="820.0" y2="435" stroke="#9CA3AF" stroke-width="1"/>
<text x="820.0" y="452" text-anchor="middle" font-size="11" fill="#6B7280">50</text>
<text x="450.0" y="490" text-anchor="middle" font-size="13" font-weight="600" fill="#374151">Tree number</text>
<text x="20" y="270.0" text-anchor="middle" font-size="13" font-weight="600" fill="#374151" transform="rotate(-90 20 270.0)">Encoded value for row 4</text>
<line x1="80" y1="361.1" x2="820" y2="361.1" stroke="#9CA3AF" stroke-width="1.5" stroke-dasharray="4 3" opacity="0.7"/>
<text x="828.0" y="365.1" font-size="11" font-weight="600" fill="#9CA3AF">1.44</text>
<line x1="80" y1="149.4" x2="820" y2="149.4" stroke="#9CA3AF" stroke-width="1.5" stroke-dasharray="4 3" opacity="0.7"/>
<text x="828.0" y="153.4" font-size="11" font-weight="600" fill="#9CA3AF">1.87</text>
<line x1="80" y1="255.2" x2="820" y2="255.2" stroke="#10B981" stroke-width="1.5" stroke-dasharray="2 2" opacity="0.7"/>
<text x="828.0" y="259.2" font-size="11" font-weight="600" fill="#10B981">1.66 (E)</text>
<circle cx="80.0" cy="361.1" r="3.5" fill="#94A3B8" opacity="0.85"/>
<circle cx="95.1" cy="361.1" r="3.5" fill="#94A3B8" opacity="0.85"/>
<circle cx="110.2" cy="361.1" r="3.5" fill="#94A3B8" opacity="0.85"/>
<circle cx="125.3" cy="149.4" r="3.5" fill="#94A3B8" opacity="0.85"/>
<circle cx="140.4" cy="361.1" r="3.5" fill="#94A3B8" opacity="0.85"/>
<circle cx="155.5" cy="361.1" r="3.5" fill="#94A3B8" opacity="0.85"/>
<circle cx="170.6" cy="361.1" r="3.5" fill="#94A3B8" opacity="0.85"/>
<circle cx="185.7" cy="149.4" r="3.5" fill="#94A3B8" opacity="0.85"/>
<circle cx="200.8" cy="149.4" r="3.5" fill="#94A3B8" opacity="0.85"/>
<circle cx="215.9" cy="149.4" r="3.5" fill="#94A3B8" opacity="0.85"/>
<circle cx="231.0" cy="361.1" r="3.5" fill="#94A3B8" opacity="0.85"/>
<circle cx="246.1" cy="361.1" r="3.5" fill="#94A3B8" opacity="0.85"/>
<circle cx="261.2" cy="361.1" r="3.5" fill="#94A3B8" opacity="0.85"/>
<circle cx="276.3" cy="149.4" r="3.5" fill="#94A3B8" opacity="0.85"/>
<circle cx="291.4" cy="149.4" r="3.5" fill="#94A3B8" opacity="0.85"/>
<circle cx="306.5" cy="361.1" r="3.5" fill="#94A3B8" opacity="0.85"/>
<circle cx="321.6" cy="149.4" r="3.5" fill="#94A3B8" opacity="0.85"/>
<circle cx="336.7" cy="149.4" r="3.5" fill="#94A3B8" opacity="0.85"/>
<circle cx="351.8" cy="361.1" r="3.5" fill="#94A3B8" opacity="0.85"/>
<circle cx="366.9" cy="361.1" r="3.5" fill="#94A3B8" opacity="0.85"/>
<circle cx="382.0" cy="361.1" r="3.5" fill="#94A3B8" opacity="0.85"/>
<circle cx="397.1" cy="149.4" r="3.5" fill="#94A3B8" opacity="0.85"/>
<circle cx="412.2" cy="361.1" r="3.5" fill="#94A3B8" opacity="0.85"/>
<circle cx="427.3" cy="361.1" r="3.5" fill="#94A3B8" opacity="0.85"/>
<circle cx="442.4" cy="361.1" r="3.5" fill="#94A3B8" opacity="0.85"/>
<circle cx="457.6" cy="149.4" r="3.5" fill="#94A3B8" opacity="0.85"/>
<circle cx="472.7" cy="149.4" r="3.5" fill="#94A3B8" opacity="0.85"/>
<circle cx="487.8" cy="149.4" r="3.5" fill="#94A3B8" opacity="0.85"/>
<circle cx="502.9" cy="361.1" r="3.5" fill="#94A3B8" opacity="0.85"/>
<circle cx="518.0" cy="149.4" r="3.5" fill="#94A3B8" opacity="0.85"/>
<circle cx="533.1" cy="149.4" r="3.5" fill="#94A3B8" opacity="0.85"/>
<circle cx="548.2" cy="149.4" r="3.5" fill="#94A3B8" opacity="0.85"/>
<circle cx="563.3" cy="361.1" r="3.5" fill="#94A3B8" opacity="0.85"/>
<circle cx="578.4" cy="361.1" r="3.5" fill="#94A3B8" opacity="0.85"/>
<circle cx="593.5" cy="361.1" r="3.5" fill="#94A3B8" opacity="0.85"/>
<circle cx="608.6" cy="149.4" r="3.5" fill="#94A3B8" opacity="0.85"/>
<circle cx="623.7" cy="361.1" r="3.5" fill="#94A3B8" opacity="0.85"/>
<circle cx="638.8" cy="361.1" r="3.5" fill="#94A3B8" opacity="0.85"/>
<circle cx="653.9" cy="149.4" r="3.5" fill="#94A3B8" opacity="0.85"/>
<circle cx="669.0" cy="361.1" r="3.5" fill="#94A3B8" opacity="0.85"/>
<circle cx="684.1" cy="361.1" r="3.5" fill="#94A3B8" opacity="0.85"/>
<circle cx="699.2" cy="361.1" r="3.5" fill="#94A3B8" opacity="0.85"/>
<circle cx="714.3" cy="149.4" r="3.5" fill="#94A3B8" opacity="0.85"/>
<circle cx="729.4" cy="149.4" r="3.5" fill="#94A3B8" opacity="0.85"/>
<circle cx="744.5" cy="149.4" r="3.5" fill="#94A3B8" opacity="0.85"/>
<circle cx="759.6" cy="149.4" r="3.5" fill="#94A3B8" opacity="0.85"/>
<circle cx="774.7" cy="149.4" r="3.5" fill="#94A3B8" opacity="0.85"/>
<circle cx="789.8" cy="361.1" r="3.5" fill="#94A3B8" opacity="0.85"/>
<circle cx="804.9" cy="361.1" r="3.5" fill="#94A3B8" opacity="0.85"/>
<circle cx="820.0" cy="149.4" r="3.5" fill="#94A3B8" opacity="0.85"/>
<path d="M 80.0,361.1 L 95.1,361.1 L 110.2,361.1 L 125.3,308.2 L 140.4,318.7 L 155.5,325.8 L 170.6,330.8 L 185.7,308.2 L 200.8,290.5 L 215.9,276.4 L 231.0,284.1 L 246.1,290.5 L 261.2,295.9 L 276.3,285.5 L 291.4,276.4 L 306.5,281.7 L 321.6,273.9 L 336.7,267.0 L 351.8,271.9 L 366.9,276.4 L 382.0,280.4 L 397.1,274.5 L 412.2,278.2 L 427.3,281.7 L 442.4,284.9 L 457.6,279.7 L 472.7,274.8 L 487.8,270.4 L 502.9,273.5 L 518.0,269.3 L 533.1,265.5 L 548.2,261.8 L 563.3,264.9 L 578.4,267.7 L 593.5,270.4 L 608.6,267.0 L 623.7,269.5 L 638.8,271.9 L 653.9,268.8 L 669.0,271.1 L 684.1,273.3 L 699.2,275.4 L 714.3,272.5 L 729.4,269.7 L 744.5,267.0 L 759.6,264.4 L 774.7,262.0 L 789.8,264.1 L 804.9,266.0 L 820.0,263.7" fill="none" stroke="#2563EB" stroke-width="2.8"/>
<circle cx="820.0" cy="263.7" r="5" fill="#2563EB"/>
<text x="810.0" y="253.7" text-anchor="end" font-size="12" font-weight="700" fill="#2563EB">1.638</text>
<g transform="translate(80,80)">
<circle cx="8" cy="6" r="3.5" fill="#94A3B8"/>
<text x="20" y="10" font-size="12" fill="#374151">single-tree encoding (noisy)</text>
<line x1="200" y1="6" x2="230" y2="6" stroke="#2563EB" stroke-width="2.8"/>
<text x="238" y="10" font-size="12" fill="#374151">running average (stabilizes)</text>
<line x1="430" y1="6" x2="460" y2="6" stroke="#10B981" stroke-width="1.5" stroke-dasharray="2 2"/>
<text x="468" y="10" font-size="12" fill="#374151">expected value across all permutations</text>
</g>
<rect x="80" y="460" width="740" height="40" rx="6" fill="#EFF6FF" stroke="#2563EB" stroke-width="1"/>
<text x="450.0" y="484" text-anchor="middle" font-size="12" fill="#1F2937"><tspan font-weight="700">Each tree sees a binary outcome (1.44 or 1.87) depending on whether row 7 came earlier in the shuffle.</tspan> The boosting average converges.</text>
</svg>