<svg viewBox="0 0 900 520" xmlns="http://www.w3.org/2000/svg"
     font-family="-apple-system, 'Helvetica Neue', Arial, sans-serif">

  <defs>
    <!-- Arrow marker: blue -->
    <marker id="ab" markerWidth="8" markerHeight="6" refX="7" refY="3" orient="auto">
      <polygon points="0 0, 8 3, 0 6" fill="#2563EB"/>
    </marker>
    <!-- Arrow marker: amber -->
    <marker id="aa" markerWidth="8" markerHeight="6" refX="7" refY="3" orient="auto">
      <polygon points="0 0, 8 3, 0 6" fill="#D97706"/>
    </marker>
    <!-- Arrow marker: gray -->
    <marker id="ag" markerWidth="8" markerHeight="6" refX="7" refY="3" orient="auto">
      <polygon points="0 0, 8 3, 0 6" fill="#9CA3AF"/>
    </marker>
    <!-- Card shadow -->
    <filter id="shadow" x="-5%" y="-5%" width="115%" height="125%">
      <feDropShadow dx="0" dy="2" stdDeviation="3" flood-color="#00000018"/>
    </filter>
  </defs>

  <!-- Page background -->
  <rect width="900" height="520" fill="#F8FAFC"/>

  <!-- ── Title ── -->
  <text x="450" y="38" text-anchor="middle" font-size="19" font-weight="700" fill="#0F172A">
    One source file ingested. Seven wiki pages touched.
  </text>
  <text x="450" y="58" text-anchor="middle" font-size="13" fill="#64748B">
    tracing the ingest of feature_engineering.py into a loan-default prediction project wiki
  </text>

  <!-- ═══════════════════════════════════════════════════════
       LEFT PANEL — Source file (dark code card)
       x=20..296, y=72..418
       ═══════════════════════════════════════════════════════ -->

  <!-- Card body -->
  <rect x="20" y="72" width="278" height="346" rx="12" fill="#0F172A" filter="url(#shadow)"/>

  <!-- Top bar / file tab -->
  <rect x="20" y="72" width="278" height="38" rx="12" fill="#1D4ED8"/>
  <rect x="20" y="94" width="278" height="16" fill="#1D4ED8"/>
  <!-- File icon dots -->
  <circle cx="38" cy="91" r="4" fill="#93C5FD"/>
  <circle cx="52" cy="91" r="4" fill="#93C5FD"/>
  <circle cx="66" cy="91" r="4" fill="#93C5FD"/>
  <text x="158" y="96" text-anchor="middle" font-size="12" font-weight="700" fill="white">feature_engineering.py</text>

  <!-- LLM EXTRACTED label -->
  <text x="36" y="126" font-size="9" font-weight="700" fill="#475569" letter-spacing="1.2">LLM EXTRACTED</text>

  <!-- Block 1: features -->
  <rect x="30" y="134" width="258" height="60" rx="6" fill="#1E293B"/>
  <text x="44" y="151" font-size="9" font-weight="700" fill="#64748B" letter-spacing="1">8 ENGINEERED FEATURES</text>
  <text x="44" y="167" font-size="11" fill="#94A3B8" font-family="'Courier New', monospace">credit_score, dti_ratio,</text>
  <text x="44" y="181" font-size="11" fill="#94A3B8" font-family="'Courier New', monospace">loan_to_value, income_verified…</text>

  <!-- Block 2: SMOTE -->
  <rect x="30" y="202" width="258" height="56" rx="6" fill="#1E293B"/>
  <text x="44" y="219" font-size="9" font-weight="700" fill="#64748B" letter-spacing="1">CLASS IMBALANCE</text>
  <text x="44" y="235" font-size="11" fill="#94A3B8" font-family="'Courier New', monospace">SMOTE(sampling_strategy=0.3)</text>
  <text x="44" y="249" font-size="11" fill="#94A3B8">applied before model training</text>

  <!-- Block 3: DATA LEAKAGE (amber highlight) -->
  <rect x="30" y="266" width="258" height="86" rx="6" fill="#1A0E00"/>
  <rect x="30" y="266" width="258" height="86" rx="6" fill="none" stroke="#D97706" stroke-width="1.5"/>
  <!-- Warning badge -->
  <rect x="44" y="277" width="68" height="18" rx="9" fill="#D97706"/>
  <text x="78" y="290" text-anchor="middle" font-size="9" font-weight="800" fill="white">⚠ LEAKAGE</text>
  <text x="44" y="312" font-size="11" fill="#FDE68A" font-family="'Courier New', monospace">payment_history_12m</text>
  <text x="44" y="327" font-size="11" fill="#FDE68A" font-family="'Courier New', monospace">  computed on FULL dataset</text>
  <text x="44" y="342" font-size="11" fill="#D97706">→ before train/test split</text>
  <text x="44" y="356" font-size="10" fill="#92400E">auto-filing to known-issues.md</text>

  <!-- Block 4: model interaction -->
  <rect x="30" y="360" width="258" height="46" rx="6" fill="#1E293B"/>
  <text x="44" y="377" font-size="9" font-weight="700" fill="#64748B" letter-spacing="1">CALLER</text>
  <text x="44" y="393" font-size="11" fill="#94A3B8">model.py calls this module after</text>
  <text x="44" y="406" font-size="11" fill="#94A3B8">train/test split in data_pipeline.py</text>

  <!-- ── Center arrow ── -->
  <!-- Shaft + arrowhead -->
  <path d="M 304,226 L 364,226 L 364,216 L 386,240 L 364,264 L 364,254 L 304,254 Z"
        fill="#2563EB" filter="url(#shadow)"/>
  <text x="345" y="237" text-anchor="middle" font-size="9" font-weight="800" fill="white">LLM</text>
  <text x="345" y="249" text-anchor="middle" font-size="9" font-weight="800" fill="white">INGEST</text>

  <!-- ═══════════════════════════════════════════════════════
       RIGHT PANEL — Wiki knowledge graph
       x=396..880, y=72..418
       ═══════════════════════════════════════════════════════ -->

  <!-- Section header -->
  <text x="638" y="88" text-anchor="middle" font-size="11" font-weight="700" fill="#2563EB" letter-spacing="0.8">WIKI AFTER INGEST</text>

  <!-- ── Node layout ──
       UPDATED (blue left-bar):
         index.md          (410,100) w=190 h=40
         log.md            (410,150) w=190 h=40
         architecture/     (410,200) w=190 h=40
         data_pipeline.md  (410,250) w=190 h=40

       NEW (blue fill):
         feature_eng.md    (616,168) w=248 h=40
         concepts/feat.md  (616,248) w=248 h=40

       AUTO-FILED (amber):
         known-issues.md   (478,336) w=320 h=52
  -->

  <!-- UPDATED group label -->
  <text x="412" y="100" font-size="9" font-weight="700" fill="#64748B" letter-spacing="1">4 UPDATED</text>

  <!-- index.md -->
  <rect x="412" y="106" width="188" height="40" rx="6" fill="white" stroke="#E2E8F0" stroke-width="1.5" filter="url(#shadow)"/>
  <rect x="412" y="106" width="5" height="40" rx="2" fill="#2563EB"/>
  <text x="427" y="122" font-size="9" font-weight="700" fill="#3B82F6" letter-spacing="0.8">UPDATED</text>
  <text x="427" y="137" font-size="12" font-weight="600" fill="#1E293B">index.md</text>

  <!-- log.md -->
  <rect x="412" y="154" width="188" height="40" rx="6" fill="white" stroke="#E2E8F0" stroke-width="1.5" filter="url(#shadow)"/>
  <rect x="412" y="154" width="5" height="40" rx="2" fill="#2563EB"/>
  <text x="427" y="170" font-size="9" font-weight="700" fill="#3B82F6" letter-spacing="0.8">UPDATED</text>
  <text x="427" y="185" font-size="12" font-weight="600" fill="#1E293B">log.md</text>

  <!-- architecture/overview.md -->
  <rect x="412" y="202" width="188" height="40" rx="6" fill="white" stroke="#E2E8F0" stroke-width="1.5" filter="url(#shadow)"/>
  <rect x="412" y="202" width="5" height="40" rx="2" fill="#2563EB"/>
  <text x="427" y="218" font-size="9" font-weight="700" fill="#3B82F6" letter-spacing="0.8">UPDATED</text>
  <text x="427" y="233" font-size="11" font-weight="600" fill="#1E293B">architecture/overview.md</text>

  <!-- data_pipeline.md -->
  <rect x="412" y="250" width="188" height="40" rx="6" fill="white" stroke="#E2E8F0" stroke-width="1.5" filter="url(#shadow)"/>
  <rect x="412" y="250" width="5" height="40" rx="2" fill="#2563EB"/>
  <text x="427" y="266" font-size="9" font-weight="700" fill="#3B82F6" letter-spacing="0.8">UPDATED</text>
  <text x="427" y="281" font-size="11" font-weight="600" fill="#1E293B">modules/data_pipeline.md</text>

  <!-- NEW group label -->
  <text x="618" y="100" font-size="9" font-weight="700" fill="#1D4ED8" letter-spacing="1">2 NEW</text>

  <!-- modules/feature_engineering.md -->
  <rect x="618" y="106" width="254" height="40" rx="6" fill="#EFF6FF" stroke="#2563EB" stroke-width="1.5" filter="url(#shadow)"/>
  <text x="634" y="122" font-size="9" font-weight="700" fill="#1D4ED8" letter-spacing="0.8">NEW</text>
  <text x="634" y="137" font-size="11" font-weight="600" fill="#1E293B">modules/feature_engineering.md</text>

  <!-- concepts/features.md -->
  <rect x="618" y="250" width="254" height="40" rx="6" fill="#EFF6FF" stroke="#2563EB" stroke-width="1.5" filter="url(#shadow)"/>
  <text x="634" y="266" font-size="9" font-weight="700" fill="#1D4ED8" letter-spacing="0.8">NEW</text>
  <text x="634" y="281" font-size="11" font-weight="600" fill="#1E293B">concepts/features.md</text>

  <!-- Cross-reference: overview → feature_engineering (blue curve) -->
  <path d="M 600,222 C 609,222 609,126 618,126"
        fill="none" stroke="#2563EB" stroke-width="1.5" stroke-dasharray="4 3"
        marker-end="url(#ab)"/>

  <!-- Cross-reference: data_pipeline → feature_engineering (gray curve, existing dep) -->
  <path d="M 600,270 C 609,270 609,146 618,146"
        fill="none" stroke="#9CA3AF" stroke-width="1" stroke-dasharray="3 3"
        marker-end="url(#ag)" opacity="0.7"/>

  <!-- AUTO-FILED label -->
  <text x="638" y="318" text-anchor="middle" font-size="9" font-weight="700" fill="#D97706" letter-spacing="1">AUTO-FILED (no prompt needed)</text>

  <!-- known-issues.md (amber, full-width) -->
  <rect x="412" y="324" width="460" height="56" rx="8" fill="#FEF3C7" stroke="#D97706" stroke-width="2" filter="url(#shadow)"/>
  <!-- amber badge -->
  <circle cx="432" cy="342" r="10" fill="#D97706"/>
  <text x="432" y="346" text-anchor="middle" font-size="12" font-weight="900" fill="white">!</text>
  <text x="452" y="344" font-size="9" font-weight="800" fill="#92400E" letter-spacing="0.8">KNOWN ISSUE FILED</text>
  <text x="642" y="360" text-anchor="middle" font-size="13" font-weight="700" fill="#78350F">known-issues.md</text>
  <text x="642" y="374" text-anchor="middle" font-size="11" fill="#92400E">payment_history_12m computed before split — data leakage</text>

  <!-- Amber arrows: feature_engineering → known-issues -->
  <path d="M 745,146 C 745,240 642,242 642,324"
        fill="none" stroke="#D97706" stroke-width="2"
        marker-end="url(#aa)"/>

  <!-- Amber arrows: concepts/features → known-issues -->
  <path d="M 745,290 C 745,307 642,307 642,324"
        fill="none" stroke="#D97706" stroke-width="1.5"
        marker-end="url(#aa)" opacity="0.7"/>

  <!-- ── Summary callout ── -->
  <rect x="20" y="430" width="860" height="62" rx="10" fill="#EFF6FF" stroke="#2563EB" stroke-width="1.5"/>
  <text x="450" y="455" text-anchor="middle" font-size="14" font-weight="700" fill="#1D4ED8">4 updated · 2 created · 1 leakage bug auto-filed to known-issues.md</text>
  <text x="450" y="476" text-anchor="middle" font-size="12" fill="#374151">Any developer who reads modules/feature_engineering.md now gets the leakage warning via cross-reference, without reading the source code.</text>

</svg>
